# xmcd
#
# Track frame offsets:
#	150
#	13401
#	29970
#	47875
#	65893
#	76445
#	95284
#	107220
#	121489
#	134584
#
# Disc length: 1971 seconds
#
# Revision: 1
# Processed by: cddbd v1.5.2PL0 Copyright (c) Steve Scherf et al.
# Submitted via: audiograbber 1.83.01
#
DISCID=9a07b10a
DTITLE=Various Artist - TV Soundtrack I'll Be Me
DYEAR=2014
DGENRE=Country
TTITLE0=Glen Campbell and Wrecking Crew) - I'm Not Gonna Miss You
TTITLE1=Band Perry - Gentle On My Mind
TTITLE2=Ashley Campbell - Remembering
TTITLE3=Glen Campbell - All I Need Is You
TTITLE4=Glen Campbell - The Long Walk Home
TTITLE5=Glen Campbell - Wichita Lineman (live)
TTITLE6=Glen Campbell - A Better Place (live)
TTITLE7=Band Perry - Gentle On My Mind (single version)
TTITLE8=Ashly Campbell - Home Again
TTITLE9=Glen Campbell - I'm Not Gonna Miss You
EXTD=
EXTT0=
EXTT1=
EXTT2=
EXTT3=
EXTT4=
EXTT5=
EXTT6=
EXTT7=
EXTT8=
EXTT9=
PLAYORDER=
